<svg id="Layer_1" height="512" viewBox="0 0 512 512" width="512" xmlns="http://www.w3.org/2000/svg" data-name="Layer 1"><path d="m185.842 256.049a84.284 84.284 0 0 1 -13.842-36.39 84.735 84.735 0 1 1 167.98.23 84.228 84.228 0 0 1 -13.97 36.4h-.01a84.752 84.752 0 0 1 -140.16-.24z" fill="#e5f5fd"/><path d="m302.6 168.3v34.3a136.317 136.317 0 0 1 -93.2 0v-34.3a136.356 136.356 0 0 0 93.2 0z" fill="#72bcef"/><path d="m256 176.509a136.39 136.39 0 0 1 -46.6-8.21v34.3a136.3 136.3 0 0 0 46.61 8.213z" fill="#50a6ea"/><circle cx="401.322" cy="291.149" fill="#4a5160" r="12.71"/><path d="m398.612 291.149a12.711 12.711 0 0 1 7.71-11.686 12.71 12.71 0 1 0 0 23.372 12.711 12.711 0 0 1 -7.71-11.686z" fill="#475673"/><circle cx="277.182" cy="318.259" fill="#4a5160" r="12.71"/><path d="m274.472 318.259a12.711 12.711 0 0 1 7.71-11.686 12.71 12.71 0 1 0 0 23.372 12.711 12.711 0 0 1 -7.71-11.686z" fill="#475673"/><circle cx="234.822" cy="318.259" fill="#4a5160" r="12.71"/><path d="m232.112 318.259a12.711 12.711 0 0 1 7.71-11.686 12.71 12.71 0 1 0 0 23.372 12.711 12.711 0 0 1 -7.71-11.686z" fill="#475673"/><circle cx="110.612" cy="291.149" fill="#4a5160" r="12.71"/><path d="m107.9 291.149a12.711 12.711 0 0 1 7.71-11.686 12.71 12.71 0 1 0 0 23.372 12.711 12.711 0 0 1 -7.71-11.686z" fill="#475673"/><path d="m370.095 497.391h-228.718l73.885-145.362h81.48z" fill="#6d7486"/><path d="m245.872 80.639 10.14-66.03 10.13 66.03 6.81 44.34-.1.5a85.291 85.291 0 0 0 -33.69 0l-.1-.5z" fill="#e5f5fd"/><path d="m255.872 80.639 5.138-33.455-5-32.575-10.14 66.03-6.81 44.34.1.5a84.964 84.964 0 0 1 10.04-1.379z" fill="#e5f5fd"/><path d="m457.482 252.189-117.5-32.3a84.228 84.228 0 0 1 -13.97 36.4l117.63 11.5a3.4 3.4 0 0 0 2.65-.63l12.05-9.09a3.392 3.392 0 0 0 -.86-5.88z" fill="#72bcef"/><path d="m457.482 252.189-117.5-32.3a84.234 84.234 0 0 1 -2.522 12.056l110.022 30.244a3.336 3.336 0 0 1 2.122 2.472l8.738-6.592a3.392 3.392 0 0 0 -.86-5.88z" fill="#50a6ea"/><path d="m172 219.659-117.49 32.52a3.392 3.392 0 0 0 -.85 5.88l12.06 9.1a3.413 3.413 0 0 0 2.66.63l117.46-11.74a84.284 84.284 0 0 1 -13.84-36.39z" fill="#72bcef"/><path d="m64.512 262.179 109.988-30.442a84.13 84.13 0 0 1 -2.5-12.078l-117.49 32.52a3.392 3.392 0 0 0 -.85 5.88l8.74 6.591a3.344 3.344 0 0 1 2.112-2.471z" fill="#50a6ea"/><path d="m205.842 256.049a84.284 84.284 0 0 1 -13.842-36.39 84.778 84.778 0 0 1 67.16-94.18c2.251-.454 4.539-.8 6.849-1.069a84.72 84.72 0 1 0 0 168.257 84.691 84.691 0 0 1 -60.167-36.618z" fill="#b9c8db"/><g fill="#284268"><path d="m465.585 255.4a9.388 9.388 0 0 0 -6-7.442q-.252-.094-.511-.165l-112.6-30.944q.26-3.427.262-6.923a90.892 90.892 0 0 0 -68.388-87.945l-5.213-33.946h33.7a6 6 0 0 0 0-12h-35.542l-9.357-60.944a6 6 0 0 0 -11.861 0l-9.357 60.944h-35.556a6 6 0 0 0 0 12h33.713l-5.212 33.946a90.892 90.892 0 0 0 -68.388 87.945q0 3.379.247 6.7l-112.609 31.164q-.259.072-.511.167a9.389 9.389 0 0 0 -2.353 16.282l12.054 9.1a9.409 9.409 0 0 0 7.058 1.791l35.448-3.541v3.242a18.709 18.709 0 1 0 12 0v-4.441l66.408-6.634a90.639 90.639 0 0 0 145.81.228l66.489 6.5v4.347a18.71 18.71 0 1 0 12 0v-3.173l35.552 3.476a9.423 9.423 0 0 0 7.037-1.8l12.047-9.095a9.39 9.39 0 0 0 3.633-8.839zm-209.58-199.864 9.857 64.194a90.725 90.725 0 0 0 -19.713 0zm-138.687 237a6.71 6.71 0 1 1 -9.982-5.851 5.979 5.979 0 0 0 6.545 0 6.711 6.711 0 0 1 3.437 5.851zm-48.818-29.4-6.988-5.276 105.7-29.254a90.075 90.075 0 0 0 8.646 23.806zm187.5 25.519a78.731 78.731 0 1 1 78.731-78.731 78.82 78.82 0 0 1 -78.726 78.731zm152.021 3.881a6.71 6.71 0 1 1 -9.982-5.851 5.979 5.979 0 0 0 6.545 0 6.711 6.711 0 0 1 3.442 5.851zm35.475-29.4-107.46-10.505a90.066 90.066 0 0 0 8.715-23.812l105.723 29.054z"/><path d="m234.817 300.94a18.71 18.71 0 1 0 18.71 18.71 18.731 18.731 0 0 0 -18.71-18.71zm0 25.42a6.71 6.71 0 1 1 6.71-6.71 6.717 6.717 0 0 1 -6.71 6.71z"/><path d="m277.183 300.94a18.71 18.71 0 1 0 18.709 18.71 18.731 18.731 0 0 0 -18.709-18.71zm0 25.42a6.71 6.71 0 1 1 6.709-6.71 6.717 6.717 0 0 1 -6.709 6.71z"/><path d="m306.044 164.778a6 6 0 0 0 -5.493-.724 130.575 130.575 0 0 1 -89.1 0 6 6 0 0 0 -8.051 5.638v34.3a6 6 0 0 0 3.95 5.638 142.587 142.587 0 0 0 97.3 0 6 6 0 0 0 3.95-5.638v-34.3a6 6 0 0 0 -2.556-4.914zm-9.444 34.941a130.6 130.6 0 0 1 -81.2 0v-21.73a142.684 142.684 0 0 0 81.2 0z"/><path d="m302.1 350.738a6 6 0 0 0 -10.73 5.362l71.289 142.579a6 6 0 1 0 10.733-5.366z"/><path d="m217.947 348.055a6 6 0 0 0 -8.05 2.683l-71.289 142.579a6 6 0 1 0 10.733 5.366l71.289-142.583a6 6 0 0 0 -2.683-8.045z"/><path d="m256.005 357.309a6 6 0 0 0 -6 6v33.033a6 6 0 0 0 12 0v-33.033a6 6 0 0 0 -6-6z"/><path d="m256.005 422.19a6 6 0 0 0 -6 6v67.81a6 6 0 0 0 12 0v-67.81a6 6 0 0 0 -6-6z"/></g></svg>